<?xml version="1.0" encoding="UTF-8" standalone="no"?>
<svg width="135px" height="45px" viewBox="0 0 135 45" version="1.1" xmlns="http://www.w3.org/2000/svg" xmlns:xlink="http://www.w3.org/1999/xlink">
    <!-- Generator: Sketch 3.8.3 (29802) - http://www.bohemiancoding.com/sketch -->
    <title>Page 1</title>
    <desc>Created with Sketch.</desc>
    <defs>
        <polygon id="path-1" points="5.06461222e-20 0.32803125 5.06461222e-20 25.372875 12.7818841 25.372875 12.7818841 0.32803125 0 0.32803125"></polygon>
        <polygon id="path-3" points="0 44.8439062 134.637976 44.8439062 134.637976 0 0 0"></polygon>
    </defs>
    <g id="**MAIN**" stroke="none" stroke-width="1" fill="none" fill-rule="evenodd">
        <g id="iPhone-6---Retina----My-Profile-Copy" transform="translate(-62.000000, -82.000000)">
            <g id="Page-1" transform="translate(62.000000, 82.000000)">
                <g id="Group-3" transform="translate(0.000000, 9.687656)">
                    <mask id="mask-2" fill="white">
                        <use xlink:href="#path-1"></use>
                    </mask>
                    <g id="Clip-2"></g>
                </g>
                <path d="M4.17084602,28.7150625 C4.17084602,30.5380313 4.70897751,31.4155313 6.39110554,31.4155313 C8.07276644,31.4155313 8.61089792,30.5380313 8.61089792,28.7150625 L8.61089792,16.361625 C8.61089792,14.539125 8.07276644,13.661625 6.39110554,13.661625 C4.70897751,13.661625 4.17084602,14.539125 4.17084602,16.361625 L4.17084602,28.7150625 Z M-0.000140138408,16.260375 C-0.000140138408,12.8174063 2.01832007,10.0156875 6.39110554,10.0156875 C10.7634239,10.0156875 12.7818841,12.8174063 12.7818841,16.260375 L12.7818841,28.8163125 C12.7818841,32.2592813 10.7634239,35.0605313 6.39110554,35.0605313 C2.01832007,35.0605313 -0.000140138408,32.2592813 -0.000140138408,28.8163125 L-0.000140138408,16.260375 Z" id="Fill-1" fill="#FFFFFF"></path>
                <path d="M20.1800242,10.3537031 L24.3510104,10.3537031 L24.3510104,28.7488594 C24.3510104,30.5380781 25.057308,31.4155781 26.5712699,31.4155781 C28.0847647,31.4155781 28.7910623,30.5380781 28.7910623,28.7488594 L28.7910623,10.3537031 L32.9615813,10.3537031 L32.9615813,28.5801094 C32.9615813,32.7655781 30.5399896,35.0605781 26.5712699,35.0605781 C22.602083,35.0605781 20.1800242,32.7655781 20.1800242,28.5801094 L20.1800242,10.3537031 Z" id="Fill-4" fill="#FFFFFF"></path>
                <polygon id="Fill-6" fill="#FFFFFF" points="42.7819204 13.9988906 38.7454671 13.9988906 38.7454671 10.3538906 50.9888927 10.3538906 50.9888927 13.9988906 46.9529066 13.9988906 46.9529066 34.7232656 42.7819204 34.7232656"></polygon>
                <polygon id="Fill-8" fill="#FFFFFF" points="64.272519 34.7232188 64.272519 10.3538438 68.4435052 10.3538438 68.4435052 20.2772813 72.8835571 20.2772813 72.8835571 10.3538438 77.0540761 10.3538438 77.0540761 34.7232188 72.8835571 34.7232188 72.8835571 23.9222813 68.4435052 23.9222813 68.4435052 34.7232188"></polygon>
                <polygon id="Fill-10" fill="#FFFFFF" points="88.6238564 34.7232188 84.4524031 34.7232188 84.4524031 24.5972813 79.4074204 10.3538438 83.645673 10.3538438 86.571763 19.6355625 86.6390294 19.6355625 89.4310536 10.3538438 93.6693062 10.3538438 88.6238564 24.5972813"></polygon>
                <path d="M100.192562,21.2896875 L101.806957,21.2896875 C104.531715,21.2896875 105.372545,20.4454687 105.372545,17.5429687 C105.372545,14.64 104.531715,13.7967187 101.806957,13.7967187 L100.192562,13.7967187 L100.192562,21.2896875 Z M96.0215761,34.723125 L96.0215761,10.35375 L102.009223,10.35375 C107.155106,10.35375 109.543531,12.345 109.543531,17.5429688 C109.543531,22.7409375 107.155106,24.7326563 102.009223,24.7326563 L100.192562,24.7326563 L100.192562,34.723125 L96.0215761,34.723125 Z" id="Fill-12" fill="#FFFFFF"></path>
                <polygon id="Fill-14" fill="#FFFFFF" points="112.838325 34.7232188 112.838325 10.3538438 124.005488 10.3538438 124.005488 13.9988438 117.009311 13.9988438 117.009311 20.2772813 122.391093 20.2772813 122.391093 23.9222813 117.009311 23.9222813 117.009311 31.0782188 124.476353 31.0782188 124.476353 34.7232188"></polygon>
                <mask id="mask-4" fill="white">
                    <use xlink:href="#path-3"></use>
                </mask>
                <g id="Clip-17"></g>
                <polygon id="Fill-16" fill="#FFFFFF" mask="url(#mask-4)" points="49.3240484 23.671875 64.894827 23.671875 64.894827 20.7032813 49.3240484 20.7032813"></polygon>
                <polygon id="Fill-18" fill="#FFFFFF" mask="url(#mask-4)" points="117.523806 23.90625 134.637976 23.90625 134.637976 20.2654687 117.523806 20.2654687"></polygon>
                <polygon id="Fill-19" fill="#FFFFFF" mask="url(#mask-4)" points="131.460524 44.8439062 53.4501436 44.8439062 53.4501436 34.723125 56.7200398 34.723125 56.7200398 41.5626562 128.190628 41.5626562 128.190628 3.28125 56.7200398 3.28125 56.7200398 10.078125 53.4501436 10.078125 53.4501436 0 131.460524 0"></polygon>
            </g>
        </g>
    </g>
</svg>