<?xml version="1.0" encoding="UTF-8" standalone="no"?>
<svg width="726px" height="20px" viewBox="0 0 726 20" version="1.1" xmlns="http://www.w3.org/2000/svg" xmlns:xlink="http://www.w3.org/1999/xlink">
    <!-- Generator: Sketch 3.8.3 (29802) - http://www.bohemiancoding.com/sketch -->
    <title>Status Bar/Black/100%</title>
    <desc>Created with Sketch.</desc>
    <defs></defs>
    <g id="**MAIN**" stroke="none" stroke-width="1" fill="none" fill-rule="evenodd">
        <g id="iPhone-6---Retina---Splash" transform="translate(-13.000000, -11.000000)" fill="#030303">
            <g id="Status-Bar/Black/100%">
                <path d="M18.5,26 C21.5375661,26 24,23.5375661 24,20.5 C24,17.4624339 21.5375661,15 18.5,15 C15.4624339,15 13,17.4624339 13,20.5 C13,23.5375661 15.4624339,26 18.5,26 Z M32.5,26 C35.5375661,26 38,23.5375661 38,20.5 C38,17.4624339 35.5375661,15 32.5,15 C29.4624339,15 27,17.4624339 27,20.5 C27,23.5375661 29.4624339,26 32.5,26 Z M46.5,26 C49.5375661,26 52,23.5375661 52,20.5 C52,17.4624339 49.5375661,15 46.5,15 C43.4624339,15 41,17.4624339 41,20.5 C41,23.5375661 43.4624339,26 46.5,26 Z M60.5,26 C63.5375661,26 66,23.5375661 66,20.5 C66,17.4624339 63.5375661,15 60.5,15 C57.4624339,15 55,17.4624339 55,20.5 C55,23.5375661 57.4624339,26 60.5,26 Z M74.5,26 C77.5375661,26 80,23.5375661 80,20.5 C80,17.4624339 77.5375661,15 74.5,15 C71.4624339,15 69,17.4624339 69,20.5 C69,23.5375661 71.4624339,26 74.5,26 Z" id="Mobile-Signal" fill-rule="evenodd"></path>
                <text id="Carrier" font-family=".SFNSDisplay-Regular, .SF NS Display" font-size="24" font-weight="normal">
                    <tspan x="88" y="30">Tethr’d</tspan>
                </text>
                <path d="M192.288842,24.8770086 C191.252748,23.6908911 189.704723,22.9378238 187.975126,22.9378238 C186.278015,22.9378238 184.755719,23.6628683 183.72033,24.8106354 L188.045078,29 L192.288842,24.8770086 Z M196.646993,20.6428849 C194.489559,18.3834913 191.402877,16.9689119 187.975126,16.9689119 C184.576545,16.9689119 181.513253,18.3595179 179.35854,20.5853872 L181.538597,22.6971999 C183.13441,21.0107416 185.427296,19.9533679 187.975126,19.9533679 C190.553767,19.9533679 192.871261,21.0364701 194.469243,22.7586586 L196.646993,20.6428849 L196.646993,20.6428849 Z M201,16.4137587 C197.725916,13.0788734 193.10114,11 187.975126,11 C182.875021,11 178.271099,13.0579121 175,16.3632886 L177.179116,18.4741888 C179.89216,15.7086331 183.725784,13.984456 187.975126,13.984456 C192.252005,13.984456 196.107762,15.7310522 198.82374,18.5280854 L201,16.4137587 Z" id="Wi-Fi" fill-rule="evenodd"></path>
                <text id="9:41-PM" font-family=".SFNSDisplay-Regular, .SF NS Display" font-size="24" font-weight="normal">
                    <tspan x="332.238281" y="30">9:41 PM</tspan>
                </text>
                <text id="100%" font-family=".SFNSDisplay-Regular, .SF NS Display" font-size="24" font-weight="normal">
                    <tspan x="625.171875" y="30">100%</tspan>
                </text>
                <path d="M693.004917,11 C691.345347,11 690,12.3360431 690,14.0001221 L690,26.9998779 C690,28.6567996 691.346761,30 693.004917,30 L731.995083,30 C733.654653,30 735,28.6639569 735,26.9998779 L735,14.0001221 C735,12.3432004 733.653239,11 731.995083,11 L693.004917,11 Z M736,17 L736,24 L737.5,24 C738.328427,24 739,23.3288106 739,22.4983244 L739,18.5016756 C739,17.6723231 738.334203,17 737.5,17 L736,17 Z M693.002,12 C691.896326,12 691,12.8900584 691,14.0001062 L691,26.9998938 C691,28.104522 691.898116,29 693.002,29 L731.998,29 C733.103674,29 734,28.1099416 734,26.9998938 L734,14.0001062 C734,12.895478 733.101884,12 731.998,12 L693.002,12 Z M692.993174,13 C692.444659,13 692,13.4489202 692,14.007484 L692,26.992516 C692,27.5489341 692.446476,28 692.993174,28 L732.006826,28 C732.555341,28 733,27.5510798 733,26.992516 L733,14.007484 C733,13.4510659 732.553524,13 732.006826,13 L692.993174,13 Z" id="Battery" fill-rule="evenodd"></path>
            </g>
        </g>
    </g>
</svg>