<?xml version="1.0" encoding="UTF-8" standalone="no"?>
<svg width="69px" height="23px" viewBox="0 0 69 23" version="1.1" xmlns="http://www.w3.org/2000/svg" xmlns:xlink="http://www.w3.org/1999/xlink">
    <!-- Generator: Sketch 3.8.3 (29802) - http://www.bohemiancoding.com/sketch -->
    <title>squiggly copy</title>
    <desc>Created with Sketch.</desc>
    <defs></defs>
    <g id="**MAIN**" stroke="none" stroke-width="1" fill="none" fill-rule="evenodd">
        <g id="iPhone-6---Retina---Sign-up" transform="translate(-681.000000, -283.000000)" fill="#FFFFFF">
            <path d="M731.146658,295.928608 C729.677684,291.571649 728.664474,288.927835 726.983053,288.927835 C725.303447,288.927835 724.290237,291.571649 722.824895,295.928608 C721.312342,300.415979 719.431184,306 715.481842,306 C711.534316,306 709.654974,300.415979 708.146053,295.925644 C706.678895,291.571649 705.669316,288.927835 703.991526,288.927835 C702.311921,288.927835 701.300526,291.571649 699.833368,295.928608 C698.322632,300.415979 696.441474,306 692.493947,306 C688.546421,306 686.665263,300.415979 685.154526,295.928608 C683.689184,291.571649 682.677789,288.927835 681,288.927835 L681,283 C684.947526,283 686.826868,288.584021 688.337605,293.071392 C689.804763,297.428351 690.816158,300.072165 692.493947,300.072165 C694.173553,300.072165 695.184947,297.428351 696.652105,293.071392 C698.162842,288.584021 700.044,283 703.991526,283 C707.939053,283 709.818395,288.584021 711.329132,293.071392 C712.794474,297.428351 713.804053,300.072165 715.481842,300.072165 C717.161447,300.072165 718.174658,297.425387 719.641816,293.071392 C721.152553,288.584021 723.033711,283 726.983053,283 C730.932395,283 732.815368,288.584021 734.327921,293.071392 C735.796895,297.425387 736.810105,300.072165 738.491526,300.072165 C740.172947,300.072165 741.186158,297.425387 742.655132,293.071392 C744.165868,288.584021 746.048842,283 750,283 L750,288.927835 C748.318579,288.927835 747.305368,291.571649 745.836395,295.928608 C744.323842,300.415979 742.442684,306 738.491526,306 C734.540368,306 732.659211,300.415979 731.146658,295.928608 Z" id="squiggly-copy"></path>
        </g>
    </g>
</svg>