<?xml version="1.0" encoding="UTF-8" standalone="no"?>
<svg width="750px" height="824px" viewBox="0 0 750 824" version="1.1" xmlns="http://www.w3.org/2000/svg" xmlns:xlink="http://www.w3.org/1999/xlink">
    <!-- Generator: Sketch 3.8.3 (29802) - http://www.bohemiancoding.com/sketch -->
    <title>PAINT SWIPE</title>
    <desc>Created with Sketch.</desc>
    <defs>
        <filter x="-50%" y="-50%" width="200%" height="200%" filterUnits="objectBoundingBox" id="filter-1">
            <feOffset dx="0" dy="21" in="SourceAlpha" result="shadowOffsetOuter1"></feOffset>
            <feGaussianBlur stdDeviation="23" in="shadowOffsetOuter1" result="shadowBlurOuter1"></feGaussianBlur>
            <feColorMatrix values="0 0 0 0 0   0 0 0 0 0   0 0 0 0 0  0 0 0 0.5 0" type="matrix" in="shadowBlurOuter1" result="shadowMatrixOuter1"></feColorMatrix>
            <feMerge>
                <feMergeNode in="shadowMatrixOuter1"></feMergeNode>
                <feMergeNode in="SourceGraphic"></feMergeNode>
            </feMerge>
        </filter>
        <path d="M958.572099,484.128057 C958.860854,485.110325 959.147008,486.092592 959.435764,487.072261 C954.511316,488.828909 949.58947,490.582959 944.862729,492.269445 C952.898449,495.382557 961.228127,498.610008 972.291875,502.897684 C969.073945,498.399522 967.773246,496.583107 967.89291,496.749416 C972.109778,494.330128 976.074309,492.409768 979.648631,489.933311 C988.579232,483.743466 999.598757,488.535268 1002.43168,501.59579 C1005.68083,516.579268 1007.60066,531.923952 1008.85453,547.214064 C1009.23174,551.831761 1005.47532,556.787276 1004.44776,559.43524 C992.252407,561.012585 981.456603,562.153367 970.754449,563.871036 C962.250477,565.235297 953.81154,567.098487 945.437638,569.117592 C935.882701,571.422543 925.118113,568.592677 917.732743,579.787409 C914.735931,584.329747 904.489022,585.04436 897.368994,585.732987 C882.338113,587.183001 867.015875,586.29948 852.148882,588.570649 C837.903624,590.74567 824.084994,595.703783 810.534309,599.318423 C806.621806,596.252085 803.344043,593.684677 800.068882,591.117268 C799.387316,591.753923 798.708351,592.393177 798.026785,593.029832 C798.950281,594.955388 799.873778,596.878346 801.801414,600.885374 C797.118896,598.398522 794.16891,596.831571 791.218924,595.264621 C786.520799,604.089437 779.882029,606.420374 775.592323,599.801761 C766.562868,608.156233 756.932491,613.763994 744.677302,605.924043 C743.662757,605.274395 742.205973,605.009339 740.97291,605.056114 C726.394673,605.612212 711.824239,606.368402 697.2434,606.781578 C694.628994,606.856937 691.972966,605.089895 689.350757,605.123677 C686.710337,605.15486 684.082924,606.371001 680.342113,607.363663 L680.342113,595.521881 C660.11884,605.581029 636.677638,600.981522 616.155204,612.048923 C607.770896,595.241233 602.209106,619.247022 593.356547,615.941614 C592.557917,614.247332 591.37168,611.739691 589.548099,607.878184 C588.002868,611.911198 587.014337,614.494198 585.963372,617.233114 C572.355456,613.197501 559.24961,609.310008 545.740547,605.30298 C545.61568,607.75605 545.451792,611.043268 545.44919,611.087445 C534.479092,620.678846 523.287875,619.260015 510.002533,616.167691 C510.093582,616.357388 508.683624,613.369008 508.519736,613.023395 C496.23333,614.268121 482.315847,619.977226 474.878449,615.330945 C465.770952,609.645226 458.232099,610.489768 453.947596,615.159437 C439.494225,630.906902 419.788631,624.71186 403.537694,630.478135 C393.699204,617.35005 380.156323,619.67579 363.546393,620.572304 C370.648211,617.633297 374.297973,616.120916 377.947736,614.608536 L377.890505,612.597226 C363.072938,613.304043 348.255372,614.01086 333.437806,614.717677 C333.401386,614.04724 333.364966,613.376804 333.331148,612.703768 C351.278197,605.851283 369.222645,598.996198 387.169694,592.141114 C387.138477,590.722283 387.10726,589.303452 387.076043,587.884621 C379.987232,587.271353 372.898421,586.660684 365.284127,586.00324 C366.449554,584.631184 367.474505,583.42024 368.741386,581.928649 L354.688631,581.928649 C354.550757,581.328374 354.415484,580.728099 354.27761,580.127825 C357.883148,579.446994 361.491288,578.766163 365.099428,578.085332 C364.914729,576.835409 364.730029,575.585487 364.54533,574.335564 C341.697246,578.082733 318.849162,581.829902 296.001078,585.577071 L296.318449,589.316445 C306.34684,587.858635 316.375232,586.398226 327.129414,584.833874 C328.08933,586.35405 329.720407,588.931853 331.840547,592.284036 C322.423484,591.753923 313.032435,591.223811 303.638785,590.693698 C303.545134,591.720142 303.451484,592.746585 303.357833,593.773029 C307.938896,594.116043 312.519959,594.459057 317.101022,594.802071 C317.132239,595.311395 317.163456,595.823318 317.194673,596.332642 C304.177274,597.987945 291.159875,599.645846 278.139875,601.301149 L279.240267,598.151656 C276.899008,597.304515 274.412071,595.482902 272.250309,595.810325 C267.622421,596.511945 263.158421,599.47174 258.63719,599.45355 C247.167624,599.411973 235.705861,597.858015 224.233694,597.75667 C220.937722,597.728085 217.727596,600.942543 214.278141,602.052142 C208.942673,603.769811 203.438113,604.957367 196.344099,603.925726 C198.78161,600.85679 201.216519,597.785254 204.192519,594.035487 C187.280826,594.744902 171.214589,602.210656 154.516211,593.045423 C154.373134,594.573395 154.227456,596.101367 154.084379,597.62674 C156.610337,598.767522 159.136295,599.905705 161.662253,601.043888 L161.032715,603.226705 C155.702449,602.540677 150.36698,601.854649 145.034113,601.168621 C145.205806,600.656698 145.377498,600.142177 145.54919,599.630254 C138.840183,600.012247 128.296715,603.148747 126.192183,600.222733 C121.246924,593.357254 117.487903,583.285114 118.37498,575.060571 C120.380659,556.462452 115.318337,549.908804 97.795316,552.567163 C83.6775258,554.713599 69.3698335,555.636099 55.1479873,557.099107 C54.3727705,555.399628 53.5975538,553.69755 52.822337,551.998071 C64.0239594,542.048064 75.2255817,532.100656 89.4994559,519.422128 C66.0400433,516.394768 45.9910643,513.193304 25.8146167,511.444452 C14.2357915,510.438797 14.2279873,505.782121 19.9874838,498.56843 C27.9347566,488.608029 36.5687985,479.193332 44.1154559,470.464663 C42.4739733,466.922783 39.7399034,461.013585 36.7144768,454.475529 C31.9044908,454.051959 25.3255538,453.472473 18.7466167,452.892987 C18.4994838,451.793783 18.252351,450.694578 18.0052181,449.595374 C23.8739733,446.81748 29.6620852,441.900945 35.6296936,441.672268 C52.06533,441.040811 55.3378894,429.01193 58.6624768,417.362445 C60.9621132,409.296416 61.9246307,400.630114 62.0338894,392.213276 C62.1795678,380.831445 62.5905887,369.475599 46.9717915,365.320452 C40.827288,363.688536 36.3867006,355.430212 31.3165747,350.048529 C22.3417496,340.529888 30.3904768,338.781036 37.5235118,337.39079 C46.2538055,335.688712 55.1167705,334.664867 64.8876237,333.204459 C60.3767985,320.913121 38.2024768,325.720515 42.3725188,308.263177 C56.1937496,309.071339 69.151316,310.131564 82.1218894,310.373233 C85.3294139,310.433001 89.3927985,308.632177 91.6846307,306.322029 C105.100043,292.793761 123.478924,291.699754 140.143484,288.612628 C166.17568,283.794839 192.863428,282.469557 219.304043,279.977508 C221.556854,279.764423 224.033386,281.908261 226.962561,283.20236 C232.748071,276.24593 240.034589,274.341163 250.588463,280.738895 C254.298057,282.986677 262.102253,277.425691 268.093274,277.241191 C276.092575,276.994325 284.146505,278.984846 292.182225,279.023825 C295.197246,279.039416 298.44119,274.69717 301.206477,275.073966 C309.455512,276.196557 318.794533,268.367001 326.348994,278.665219 C328.050309,280.983163 335.00905,279.455191 339.720183,278.265036 C337.8914,277.760909 336.062617,277.256783 334.231232,276.752656 C334.275456,275.541712 334.317078,274.333367 334.361302,273.125022 C352.578896,274.606219 370.788687,276.258923 389.027092,277.436085 C393.007232,277.693346 397.112239,275.606677 401.136603,275.697628 C429.190085,276.331684 457.230561,277.571212 485.286645,277.961001 C501.126561,278.181881 516.997694,277.467268 532.827204,276.617529 C553.092099,275.528719 573.33098,273.933184 593.575064,272.451987 C608.400435,271.365776 623.204994,269.949543 638.040771,269.029642 C642.572407,268.748994 647.215903,270.175621 651.739736,269.861191 C662.262393,269.123191 672.730421,267.618607 683.247875,266.776663 C691.30961,266.129614 699.464994,265.290268 707.495512,265.812585 C727.963316,267.137867 748.134561,268.954283 768.792267,264.887487 C778.903903,262.899564 790.269414,267.278191 802.8914,269.027043 C802.558421,270.079473 803.208771,268.01879 803.346645,267.579628 C807.100463,266.849423 810.378225,265.49036 813.510309,265.771008 C817.953498,266.168592 823.119875,257.180064 826.842477,266.641536 C830.385582,264.851107 834.066561,261.314423 837.448379,261.576881 C851.912155,262.707268 866.175624,264.671804 879.999456,270.25098 C888.474813,273.670726 898.354924,273.616156 907.824015,272.301268 C912.272407,273.683719 916.720799,275.06617 922.233162,276.78124 C921.658253,277.42829 919.899708,279.408416 915.877945,283.929966 C940.169806,280.525811 962.846197,285.509909 986.087092,278.272832 C992.137945,291.489268 1000.35836,277.986987 1009.20572,276.472008 C1009.47367,278.309212 1009.80925,280.598571 1009.98614,281.804318 C1014.08334,281.214437 1018.95056,278.912085 1022.05143,280.367297 C1031.46069,284.779705 1040.7945,289.865149 1048.95509,296.229099 C1054.01221,300.171163 1067.05562,297.416656 1062.5552,311.077452 C1060.38043,317.680473 1060.60676,325.073466 1059.34248,335.408064 C1071.91504,321.370473 1085.78309,320.063381 1101.46432,324.340663 C1101.83892,332.375508 1103.4622,340.025761 1114.85632,338.315888 C1112.45263,339.464466 1110.05154,340.615642 1105.07246,342.995952 C1115.34278,345.129395 1123.12877,346.748318 1130.91736,348.364642 L1131.11767,351.877937 C1095.53053,362.711466 1059.9408,373.542395 1023.14402,384.742325 C1025.69339,387.48124 1027.29064,389.198909 1029.15845,391.202423 C1025.95873,394.746902 1022.72259,398.332959 1018.36785,403.155945 C1023.50301,404.405867 1026.71574,405.188043 1026.59607,405.159459 C1020.84438,414.348078 1013.2613,424.033029 1008.33165,434.91593 C1001.33909,450.343768 995.137358,454.758776 976.818309,451.219494 C978.173638,484.063092 949.886029,477.512043 931.886952,487.311332 C940.781134,486.251107 949.677917,485.188283 958.572099,484.128057 Z" id="path-2"></path>
    </defs>
    <g id="**MAIN**" stroke="none" stroke-width="1" fill="none" fill-rule="evenodd">
        <g id="iPhone-6---Retina---Sign-up" transform="translate(0.000000, -122.000000)">
            <g id="Group-Copy" transform="translate(-169.000000, 74.000000)">
                <g id="Bitmap" filter="url(#filter-1)">
                    <mask id="mask-3" fill="white">
                        <use xlink:href="#path-2"></use>
                    </mask>
                    <use id="PAINT-SWIPE" fill="#9012FE" transform="translate(573.664571, 446.020590) rotate(-31.000000) translate(-573.664571, -446.020590) " xlink:href="#path-2"></use>
                </g>
            </g>
        </g>
    </g>
</svg>