<?xml version="1.0" encoding="UTF-8" standalone="no"?>
<svg width="146px" height="101px" viewBox="0 0 146 101" version="1.1" xmlns="http://www.w3.org/2000/svg" xmlns:xlink="http://www.w3.org/1999/xlink">
    <!-- Generator: Sketch 3.8.3 (29802) - http://www.bohemiancoding.com/sketch -->
    <title>HOT</title>
    <desc>Created with Sketch.</desc>
    <defs>
        <path d="M123.404688,60.8206313 C123.442502,61.0890568 123.479974,61.3574824 123.517788,61.6251978 C122.872918,62.1052393 122.228389,62.5845706 121.609409,63.0454388 C122.661709,63.8961632 123.752503,64.7781329 125.20133,65.9498317 C124.779934,64.7206131 124.609604,64.2242389 124.625274,64.2696866 C125.177484,63.6085644 125.69665,63.0837853 126.164718,62.4070405 C127.334204,60.7155335 128.777241,62.0249957 129.14822,65.5940613 C129.573705,69.6886161 129.825112,73.8818777 129.98931,78.0602267 C130.038706,79.3221109 129.546792,80.6763107 129.412232,81.3999235 C127.815216,81.8309666 126.401476,82.1427095 125,82.6120992 C123.886382,82.9849124 122.78128,83.4940688 121.684695,84.0458325 C120.43345,84.6757094 119.023798,83.9023881 118.056664,86.9615873 C117.664223,88.2028779 116.322362,88.398161 115.389975,88.586343 C113.421641,88.9825902 111.415152,88.7411492 109.468279,89.3617946 C107.602823,89.9561654 105.793236,91.3110753 104.018737,92.298853 C103.506384,91.4609108 103.077152,90.7593117 102.648261,90.0577126 C102.559008,90.2316922 102.470096,90.4063818 102.380843,90.5803613 C102.501777,91.1065606 102.622711,91.6320498 102.875141,92.7270556 C102.261952,92.0474703 101.875643,91.6192676 101.489335,91.191065 C100.874102,93.6026342 100.004737,94.2396123 99.4429887,92.4309354 C98.2605571,94.7139728 96.9994329,96.2464128 95.3945826,94.1039793 C95.2617251,93.9264491 95.0709554,93.8540169 94.9094824,93.866799 C93.0004225,94.0187648 91.0923846,94.2254099 89.182984,94.338319 C88.8406205,94.3589125 88.4928064,93.8760306 88.1494209,93.8852622 C87.8036508,93.8937836 87.4595839,94.22612 86.9697145,94.497386 L86.9697145,91.2613669 C84.3214219,94.0102434 81.2517326,92.7533301 78.5642641,95.7777333 C77.4663162,91.1846739 76.7379846,97.7447671 75.5787179,96.8414938 C75.4741352,96.3784952 75.3187941,95.693229 75.0799913,94.6379899 C74.8776391,95.7400969 74.7481882,96.4459567 74.6105615,97.1944237 C72.8285678,96.0916066 71.1123216,95.0292663 69.3432731,93.9342605 C69.3269214,94.6046142 69.3054598,95.5029167 69.3051191,95.5149887 C67.8685549,98.1360435 66.4030346,97.7483177 64.6632829,96.9032743 C64.675206,96.9551131 64.4905681,96.1384745 64.4691065,96.0440285 C62.8601683,96.3841762 61.0376361,97.944311 60.0636885,96.6746155 C58.871037,95.1208718 57.8838037,95.351661 57.3227363,96.6277475 C55.4300281,100.931078 52.8495268,99.2381505 50.7214224,100.813908 C49.4330454,97.2263791 47.6595683,97.861937 45.4844527,98.1069286 C46.4144552,97.3037823 46.8924015,96.8904921 47.3703478,96.477202 L47.3628532,95.9275687 C45.4224526,96.1207215 43.4820519,96.3138743 41.5416513,96.5070271 C41.536882,96.323816 41.5321128,96.1406049 41.5276842,95.9566837 C43.8778991,94.0840959 46.2277734,92.210798 48.5779883,90.3375001 C48.5739003,89.9497743 48.5698124,89.5620485 48.5657245,89.1743227 C47.6374254,89.0067343 46.7091263,88.839856 45.7120138,88.6601955 C45.8646296,88.2852519 45.9988497,87.9543357 46.1647512,87.5467265 L44.3245047,87.5467265 C44.3064497,87.3826887 44.2887353,87.2186509 44.2706803,87.054613 C44.7428354,86.8685615 45.2153312,86.6825099 45.6878269,86.4964583 C45.66364,86.1548904 45.6394531,85.8133224 45.6152663,85.4717544 C42.6232475,86.4957482 39.6312287,87.519742 36.6392099,88.5437357 L36.6807705,89.5655991 C37.9940157,89.1672215 39.3072608,88.7681338 40.7155502,88.3406413 C40.8412538,88.7560618 41.0548478,89.4605013 41.3324859,90.3765568 C40.0992959,90.2316922 38.8695124,90.0868276 37.6393884,89.941963 C37.6271246,90.2224606 37.6148608,90.5029582 37.6025971,90.7834558 C38.2024997,90.8771917 38.8024024,90.9709276 39.402305,91.0646635 C39.406393,91.2038471 39.4104809,91.3437409 39.4145688,91.4829245 C37.709905,91.9352713 36.0052413,92.3883281 34.3002368,92.8406749 L34.4443361,91.9800089 C34.1377419,91.7485096 33.8120707,91.2507151 33.5289821,91.3401903 C32.9229475,91.5319228 32.3383746,92.3407501 31.7463071,92.3357792 C30.2443362,92.3244173 28.7433872,91.8997652 27.2410756,91.8720705 C26.8094591,91.8642592 26.3890844,92.7426783 25.9373689,93.0458997 C25.2386748,93.5152894 24.5178377,93.8398144 23.5888573,93.5578966 C23.9080559,92.7192443 24.2269139,91.8798819 24.6166292,90.855178 C22.4019971,91.0490409 20.2980795,93.0892171 18.1113815,90.5846221 C18.0926452,91.0021729 18.0735682,91.4197238 18.0548319,91.8365645 C18.385613,92.1483074 18.7163941,92.4593402 19.0471752,92.770373 L18.9647354,93.3668742 C18.2667226,93.1794024 17.5680284,92.9919306 16.869675,92.8044588 C16.8921586,92.664565 16.9146421,92.5239612 16.9371257,92.3840674 C16.058563,92.4884551 14.6778671,93.3455706 14.402273,92.5459749 C13.7546779,90.6698365 13.2624238,87.9174095 13.378589,85.6698781 C13.641238,80.5875456 12.9783132,78.7966217 10.6836259,79.523075 C8.83486287,80.1096345 6.96123162,80.3617273 5.09884216,80.7615251 C4.99732541,80.2971063 4.89580866,79.8319774 4.79429191,79.3675586 C6.26117485,76.6485072 7.72805779,73.9301659 9.59726046,70.465488 C6.52518653,69.6381976 3.89971816,68.7633291 1.25755744,68.285418 C-0.258721233,68.0106014 -0.259743214,66.7380654 0.494478529,64.7667709 C1.53519552,62.044879 2.66584682,59.4721125 3.65410213,57.0868177 C3.43914553,56.1189234 3.08111163,54.5041094 2.68492379,52.7174462 C2.05504303,52.6016966 1.19351331,52.4433397 0.3319836,52.2849828 C0.299620879,51.9846019 0.267258157,51.6842209 0.234895436,51.3838399 C1.00342491,50.6247211 1.76139391,49.2811731 2.54286847,49.2186825 C4.69515979,49.0461232 5.12371035,45.7589754 5.55907412,42.5755052 C5.86021777,40.3712912 5.98626205,38.0030393 6.00056978,35.702959 C6.01964675,32.5926312 6.07347107,29.4894046 4.02814706,28.3539219 C3.22350761,27.9079662 2.6420006,25.6512033 1.97805382,24.1805437 C0.802776034,21.5793723 1.85677878,21.1014612 2.79086912,20.7215467 C3.93412484,20.2564178 5.09475424,19.9766303 6.37427405,19.5775426 C5.78356921,16.2186726 2.87978144,17.5323956 3.42585978,12.761806 C5.23578757,12.9826535 6.93261616,13.2723827 8.63114805,13.3384239 C9.05118211,13.3547566 9.58329339,12.8626431 9.88341505,12.231346 C11.6401998,8.53445866 14.0469643,8.23549792 16.2292338,7.39187477 C19.6382206,6.07531135 23.1330539,5.7131499 26.5955245,5.03214434 C26.8905362,4.97391445 27.2148448,5.55976387 27.5984282,5.91340388 C28.3560565,4.01241129 29.3102458,3.49189296 30.6923044,5.24020964 C31.1780858,5.85446388 32.2000665,4.334806 32.984607,4.28438745 C34.0321372,4.216926 35.0868213,4.7608783 36.1391207,4.77153011 C36.5339459,4.77579083 36.9587492,3.58917947 37.3208711,3.69214695 C38.4011046,3.998919 39.6240749,1.85932593 40.6133522,4.67353348 C40.8361439,5.30696097 41.74741,4.88941011 42.3643457,4.56417492 C42.1248616,4.42641155 41.8853774,4.28864817 41.6455526,4.15088479 C41.6513439,3.81996864 41.6567944,3.4897626 41.6625857,3.15955657 C44.0482292,3.56432526 46.4328508,4.0159619 48.8212197,4.33764648 C49.3424298,4.40794841 49.8799916,3.83772165 50.406993,3.86257587 C54.0806729,4.03584527 57.7526495,4.37457275 61.42667,4.48109082 C63.5009502,4.54145107 65.5793182,4.34616793 67.6522357,4.11395852 C70.3059789,3.81641803 72.9563154,3.38040405 75.6073333,2.97563536 C77.548756,2.67880499 79.4874533,2.29178931 81.4302386,2.04040666 C82.0236687,1.96371364 82.6317472,2.3535698 83.2241553,2.26764522 C84.602126,2.06597099 85.9729427,1.65481122 87.350232,1.42473218 C88.405938,1.24791217 89.4739079,1.01854325 90.525526,1.16127747 C93.2058406,1.52343893 95.84732,2.01981316 98.5525029,0.908474574 C99.8766492,0.365232389 101.364994,1.56178544 103.017877,2.03969654 C102.974273,2.32729534 103.059438,1.76416978 103.077493,1.64415942 C103.569065,1.44461555 103.998297,1.07322253 104.408452,1.14991554 C104.9903,1.25856398 105.666851,-1.19774284 106.154336,1.38780591 C106.618315,0.898532887 107.100349,-0.0679411178 107.543208,0.00378105304 C109.437278,0.312683472 111.305119,0.849534572 113.115387,2.37416329 C114.225258,3.30868187 115.519086,3.29376934 116.759089,2.93444837 C117.341618,3.31223248 117.924147,3.69001658 118.646006,4.15869612 C118.57072,4.33551612 118.340434,4.87662795 117.813773,6.11223762 C120.994858,5.18197976 123.964393,6.54399089 127.007852,4.56630529 C127.800227,8.17797816 128.876714,4.48819203 130.035299,4.07419178 C130.070387,4.57624697 130.114332,5.20186314 130.137497,5.53135905 C130.674037,5.37016169 131.311412,4.74099493 131.717479,5.13866241 C132.949647,6.34444702 134.171936,7.73415285 135.240587,9.47323796 C135.902831,10.5504908 137.610901,9.79776303 137.021559,13.5308665 C136.736767,15.3352827 136.766405,17.3555755 136.600844,20.1797248 C138.247255,16.3436538 140.063314,15.9864632 142.116814,17.1553216 C142.165869,19.3510142 142.378441,21.4416089 143.870533,20.9743496 C143.555763,21.2882229 143.241333,21.6028063 142.58931,22.2532767 C143.934236,22.8362856 144.953832,23.2786907 145.973769,23.7203856 L146,24.6804685 C141.339768,27.6409609 136.679196,30.6007432 131.860557,33.6613625 C132.194404,34.4098295 132.403569,34.8792192 132.648163,35.4267221 C132.229151,36.3953265 131.80537,37.3752928 131.235104,38.6932764 C131.907568,39.0348444 132.328283,39.2485907 132.312613,39.2407793 C131.559413,41.7517654 130.566388,44.3983845 129.920837,47.3723692 C129.005143,51.5883546 128.193009,52.7948494 125.794079,51.8276652 C125.971563,60.8028783 122.267224,59.0126645 119.910196,61.6905289 C121.074913,61.4007997 122.239971,61.1103605 123.404688,60.8206313 Z" id="path-1"></path>
    </defs>
    <g id="**MAIN**" stroke="none" stroke-width="1" fill="none" fill-rule="evenodd">
        <g id="iPhone-6---Retina---Trending-artists-v1" transform="translate(-573.000000, -350.000000)">
            <g id="HOT" transform="translate(573.000000, 350.000000)">
                <mask id="mask-2" fill="white">
                    <use xlink:href="#path-1"></use>
                </mask>
                <use id="Mask" fill="#FE12D4" xlink:href="#path-1"></use>
                <text font-family="TradeGothicLTStd-BdCn20, Trade Gothic LT Std" font-size="48" font-style="condensed" font-weight="bold" fill="#FFFFFF">
                    <tspan x="31.164" y="60">HOT</tspan>
                </text>
            </g>
        </g>
    </g>
</svg>