<?xml version="1.0" encoding="UTF-8" standalone="no"?>
<svg width="289px" height="96px" viewBox="0 0 289 96" version="1.1" xmlns="http://www.w3.org/2000/svg" xmlns:xlink="http://www.w3.org/1999/xlink">
    <!-- Generator: Sketch 3.8.3 (29802) - http://www.bohemiancoding.com/sketch -->
    <title>OUTHYPE LOGO</title>
    <desc>Created with Sketch.</desc>
    <defs>
        <polygon id="path-1" points="1.08420217e-19 0.6998 1.08420217e-19 54.1288 27.3627 54.1288 27.3627 0.6998 0 0.6998"></polygon>
        <polygon id="path-3" points="0 95.667 288.225 95.667 288.225 0 0 0"></polygon>
    </defs>
    <g id="**MAIN**" stroke="none" stroke-width="1" fill="none" fill-rule="evenodd">
        <g id="iPhone-6---Retina---Splash" transform="translate(-235.000000, -82.000000)">
            <g id="OUTHYPE-LOGO" transform="translate(235.000000, 82.000000)">
                <g id="Group-3" transform="translate(0.000000, 20.667000)">
                    <mask id="mask-2" fill="white">
                        <use xlink:href="#path-1"></use>
                    </mask>
                    <g id="Clip-2"></g>
                </g>
                <path d="M8.9287,61.2588 C8.9287,65.1478 10.0807,67.0198 13.6817,67.0198 C17.2817,67.0198 18.4337,65.1478 18.4337,61.2588 L18.4337,34.9048 C18.4337,31.0168 17.2817,29.1448 13.6817,29.1448 C10.0807,29.1448 8.9287,31.0168 8.9287,34.9048 L8.9287,61.2588 Z M-0.0003,34.6888 C-0.0003,27.3438 4.3207,21.3668 13.6817,21.3668 C23.0417,21.3668 27.3627,27.3438 27.3627,34.6888 L27.3627,61.4748 C27.3627,68.8198 23.0417,74.7958 13.6817,74.7958 C4.3207,74.7958 -0.0003,68.8198 -0.0003,61.4748 L-0.0003,34.6888 Z" id="Fill-1" fill="#FFFFFF"></path>
                <path d="M43.2002,22.0879 L52.1292,22.0879 L52.1292,61.3309 C52.1292,65.1479 53.6412,67.0199 56.8822,67.0199 C60.1222,67.0199 61.6342,65.1479 61.6342,61.3309 L61.6342,22.0879 L70.5622,22.0879 L70.5622,60.9709 C70.5622,69.8999 65.3782,74.7959 56.8822,74.7959 C48.3852,74.7959 43.2002,69.8999 43.2002,60.9709 L43.2002,22.0879 Z" id="Fill-4" fill="#FFFFFF"></path>
                <polygon id="Fill-6" fill="#FFFFFF" points="91.585 29.8643 82.944 29.8643 82.944 22.0883 109.154 22.0883 109.154 29.8643 100.514 29.8643 100.514 74.0763 91.585 74.0763"></polygon>
                <polygon id="Fill-8" fill="#FFFFFF" points="137.5908 74.0762 137.5908 22.0882 146.5198 22.0882 146.5198 43.2582 156.0248 43.2582 156.0248 22.0882 164.9528 22.0882 164.9528 74.0762 156.0248 74.0762 156.0248 51.0342 146.5198 51.0342 146.5198 74.0762"></polygon>
                <polygon id="Fill-10" fill="#FFFFFF" points="189.7207 74.0762 180.7907 74.0762 180.7907 52.4742 169.9907 22.0882 179.0637 22.0882 185.3277 41.8892 185.4717 41.8892 191.4487 22.0882 200.5217 22.0882 189.7207 52.4742"></polygon>
                <path d="M214.4863,45.418 L217.9423,45.418 C223.7753,45.418 225.5753,43.617 225.5753,37.425 C225.5753,31.232 223.7753,29.433 217.9423,29.433 L214.4863,29.433 L214.4863,45.418 Z M205.5573,74.076 L205.5573,22.088 L218.3753,22.088 C229.3913,22.088 234.5043,26.336 234.5043,37.425 C234.5043,48.514 229.3913,52.763 218.3753,52.763 L214.4863,52.763 L214.4863,74.076 L205.5573,74.076 Z" id="Fill-12" fill="#FFFFFF"></path>
                <polygon id="Fill-14" fill="#FFFFFF" points="241.5576 74.0762 241.5576 22.0882 265.4636 22.0882 265.4636 29.8642 250.4866 29.8642 250.4866 43.2582 262.0076 43.2582 262.0076 51.0342 250.4866 51.0342 250.4866 66.3002 266.4716 66.3002 266.4716 74.0762"></polygon>
                <mask id="mask-4" fill="white">
                    <use xlink:href="#path-3"></use>
                </mask>
                <g id="Clip-17"></g>
                <polygon id="Fill-16" fill="#FFFFFF" mask="url(#mask-4)" points="105.59 50.5 138.923 50.5 138.923 44.167 105.59 44.167"></polygon>
                <polygon id="Fill-18" fill="#FFFFFF" mask="url(#mask-4)" points="251.588 51 288.225 51 288.225 43.233 251.588 43.233"></polygon>
                <polygon id="Fill-19" fill="#FFFFFF" mask="url(#mask-4)" points="281.4229 95.667 114.4229 95.667 114.4229 74.076 121.4229 74.076 121.4229 88.667 274.4229 88.667 274.4229 7 121.4229 7 121.4229 21.5 114.4229 21.5 114.4229 0 281.4229 0"></polygon>
            </g>
        </g>
    </g>
</svg>