<?xml version="1.0" encoding="UTF-8" standalone="no"?>
<svg width="69px" height="23px" viewBox="0 0 69 23" version="1.1" xmlns="http://www.w3.org/2000/svg" xmlns:xlink="http://www.w3.org/1999/xlink">
    <!-- Generator: Sketch 3.8.3 (29802) - http://www.bohemiancoding.com/sketch -->
    <title>squiggly copy</title>
    <desc>Created with Sketch.</desc>
    <defs></defs>
    <g id="**MAIN**" stroke="none" stroke-width="1" fill="none" fill-rule="evenodd">
        <g id="iPhone-6---Retina---Splash" transform="translate(-341.000000, -776.000000)" fill="#FFFFFF">
            <path d="M391.146658,788.928608 C389.677684,784.571649 388.664474,781.927835 386.983053,781.927835 C385.303447,781.927835 384.290237,784.571649 382.824895,788.928608 C381.312342,793.415979 379.431184,799 375.481842,799 C371.534316,799 369.654974,793.415979 368.146053,788.925644 C366.678895,784.571649 365.669316,781.927835 363.991526,781.927835 C362.311921,781.927835 361.300526,784.571649 359.833368,788.928608 C358.322632,793.415979 356.441474,799 352.493947,799 C348.546421,799 346.665263,793.415979 345.154526,788.928608 C343.689184,784.571649 342.677789,781.927835 341,781.927835 L341,776 C344.947526,776 346.826868,781.584021 348.337605,786.071392 C349.804763,790.428351 350.816158,793.072165 352.493947,793.072165 C354.173553,793.072165 355.184947,790.428351 356.652105,786.071392 C358.162842,781.584021 360.044,776 363.991526,776 C367.939053,776 369.818395,781.584021 371.329132,786.071392 C372.794474,790.428351 373.804053,793.072165 375.481842,793.072165 C377.161447,793.072165 378.174658,790.425387 379.641816,786.071392 C381.152553,781.584021 383.033711,776 386.983053,776 C390.932395,776 392.815368,781.584021 394.327921,786.071392 C395.796895,790.425387 396.810105,793.072165 398.491526,793.072165 C400.172947,793.072165 401.186158,790.425387 402.655132,786.071392 C404.165868,781.584021 406.048842,776 410,776 L410,781.927835 C408.318579,781.927835 407.305368,784.571649 405.836395,788.928608 C404.323842,793.415979 402.442684,799 398.491526,799 C394.540368,799 392.659211,793.415979 391.146658,788.928608 Z" id="squiggly-copy"></path>
        </g>
    </g>
</svg>